<?xml version="1.0" encoding="utf-8"?>
<!-- Generator: Adobe Illustrator 24.0.2, SVG Export Plug-In . SVG Version: 6.00 Build 0)  -->
<svg version="1.1" id="Layer_1" xmlns="http://www.w3.org/2000/svg" xmlns:xlink="http://www.w3.org/1999/xlink" width="150px" height="150px"
	 viewBox="0 0 512 512" enable-background="new 0 0 512 512" xml:space="preserve">
<g>
	<g>
		<g>
			<polygon fill="#F2F2F2" points="44.9,11.8 44.9,468.3 370.3,468.3 370.3,72.7 310.3,11.8 			"/>
		</g>
		<g>
			<polygon fill="#CDCCCA" points="310,11.9 310,72.9 369.9,72.9 			"/>
		</g>
		<g>
			<rect x="66.2" y="88.9" fill="#CDCCCA" width="281.1" height="7"/>
		</g>
		<g>
			<rect x="66.2" y="352.2" fill="#CDCCCA" width="281.1" height="3.5"/>
		</g>
		<g>
			<rect x="66.2" y="362.8" fill="#CDCCCA" width="281.1" height="3.5"/>
		</g>
		<g>
			<rect x="66.2" y="373.4" fill="#CDCCCA" width="231" height="3.5"/>
		</g>
		<g>
			<rect x="66.2" y="398.2" fill="#CDCCCA" width="281.1" height="3.5"/>
		</g>
		<g>
			<rect x="66.2" y="408.8" fill="#CDCCCA" width="103.5" height="3.5"/>
		</g>
		<g>
			<rect x="273.8" y="129.3" fill="#CDCCCA" width="73.4" height="3.5"/>
		</g>
		<g>
			<rect x="273.8" y="142.2" fill="#CDCCCA" width="73.4" height="3.5"/>
		</g>
		<g>
			<rect x="273.8" y="155.1" fill="#CDCCCA" width="73.4" height="3.5"/>
		</g>
		<g>
			<rect x="273.8" y="168" fill="#CDCCCA" width="73.4" height="3.5"/>
		</g>
		<g>
			<rect x="273.8" y="180.9" fill="#CDCCCA" width="73.4" height="3.5"/>
		</g>
		<g>
			<rect x="305.2" y="435.7" fill="#92E0EA" width="42.1" height="12"/>
		</g>
		<g>
			<rect x="273.8" y="193.7" fill="#CDCCCA" width="46.7" height="3.5"/>
		</g>
		<g>
			<rect x="273.8" y="261.2" fill="#CDCCCA" width="73.4" height="3.5"/>
		</g>
		<g>
			<rect x="273.8" y="274.1" fill="#CDCCCA" width="73.4" height="3.5"/>
		</g>
		<g>
			<rect x="273.8" y="287" fill="#CDCCCA" width="73.4" height="3.5"/>
		</g>
		<g>
			<rect x="273.8" y="299.9" fill="#CDCCCA" width="51.4" height="3.5"/>
		</g>
		<g>
			<rect x="66.2" y="104.3" fill="#CDCCCA" width="172.3" height="7"/>
		</g>
		<g>
			<rect x="66.2" y="162.8" fill="#92E0EA" width="25.4" height="48.6"/>
		</g>
		<g>
			<rect x="98.1" y="143.9" fill="#92E0EA" width="25.4" height="67.4"/>
		</g>
		<g>
			<rect x="130" y="155.8" fill="#92E0EA" width="25.4" height="55.5"/>
		</g>
		<g>
			<rect x="161.9" y="129.3" fill="#92E0EA" width="25.4" height="82.1"/>
		</g>
		<g>
			<rect x="193.8" y="137.6" fill="#92E0EA" width="25.4" height="73.8"/>
		</g>
		<g>
			<rect x="225.8" y="148.9" fill="#92E0EA" width="25.4" height="62.5"/>
		</g>
		<g>
			<rect x="66.2" y="259.5" fill="#CDCCCA" width="49.4" height="71.4"/>
		</g>
		<g>
			<rect x="66.2" y="38.7" fill="#F77B55" width="26.3" height="26.3"/>
		</g>
		<g>
			<rect x="201" y="259.5" fill="#CDCCCA" width="49.4" height="71.4"/>
		</g>
		<g>
			<rect x="133.6" y="259.5" fill="#CDCCCA" width="49.4" height="71.4"/>
		</g>
	</g>
	<g>
		<g>
			<rect x="356" y="172.7" fill="#353F49" width="21" height="18.2"/>
		</g>
		<g>
			<path fill="#F77B55" d="M446.7,264.8c0,44.3-35.9,80.2-80.2,80.2c-44.3,0-80.2-35.9-80.2-80.2c0-44.3,35.9-80.2,80.2-80.2
				C410.8,184.6,446.7,220.5,446.7,264.8z"/>
		</g>
		<g>
			<path fill="#FFFFFF" d="M435.5,264.8c0,38.1-30.9,69-69,69c-38.1,0-69-30.9-69-69c0-38.1,30.9-69,69-69
				C404.6,195.8,435.5,226.7,435.5,264.8z"/>
		</g>
		<g>
			<g>
				<path fill="#F77B55" d="M366.5,126.4c-18.4,0-33.4,14.9-33.4,33.4c0,18.4,15,33.4,33.4,33.4c18.4,0,33.4-14.9,33.4-33.4
					C399.9,141.3,384.9,126.4,366.5,126.4z M366.5,188.5c-15.9,0-28.7-12.9-28.7-28.7c0-15.9,12.9-28.7,28.7-28.7
					c15.9,0,28.7,12.9,28.7,28.7C395.2,175.6,382.3,188.5,366.5,188.5z"/>
			</g>
		</g>
		<g>
			<path fill="#F77B55" d="M383.8,173.5c-0.2-9.4-7.9-16.9-17.3-16.9c-9.4,0-17.1,7.5-17.3,16.9H383.8z"/>
		</g>
		<g>
			<rect x="365.4" y="199.1" fill="#353F49" width="2.1" height="12.1"/>
		</g>
		<g>
			<polygon fill="#353F49" points="338.8,219 340.6,217.9 334.5,207.4 332.7,208.5 			"/>
		</g>
		<g>
			<polygon fill="#353F49" points="319.5,239 320.6,237.1 310.1,231 309,232.9 			"/>
		</g>
		<g>
			<rect x="300.8" y="263.7" fill="#353F49" width="12.1" height="2.1"/>
		</g>
		<g>
			<polygon fill="#353F49" points="320.6,292.5 319.5,290.7 309,296.7 310.1,298.6 			"/>
		</g>
		<g>
			<polygon fill="#353F49" points="340.6,311.8 338.8,310.7 332.7,321.2 334.5,322.3 			"/>
		</g>
		<g>
			<rect x="365.4" y="318.4" fill="#353F49" width="2.1" height="12.1"/>
		</g>
		<g>
			
				<rect x="395.2" y="310.4" transform="matrix(0.8659 -0.5003 0.5003 0.8659 -105.1618 240.6952)" fill="#353F49" width="2.1" height="12.1"/>
		</g>
		<g>
			
				<rect x="417.1" y="288.6" transform="matrix(0.5008 -0.8655 0.8655 0.5008 -46.3063 508.9815)" fill="#353F49" width="2.1" height="12.1"/>
		</g>
		<g>
			<rect x="420.1" y="263.7" fill="#353F49" width="12.1" height="2.1"/>
		</g>
		<g>
			
				<rect x="412.1" y="233.9" transform="matrix(0.8661 -0.5 0.5 0.8661 -61.4817 240.5219)" fill="#353F49" width="12.1" height="2.1"/>
		</g>
		<g>
			<polygon fill="#353F49" points="392.3,217.9 394.2,219 400.3,208.5 398.4,207.4 			"/>
		</g>
		<g>
			<g>
				<polygon fill="#353F49" points="327.5,227.4 329,225.9 320.4,217.2 318.9,218.7 				"/>
			</g>
			<g>
				<polygon fill="#353F49" points="314,251.9 314.6,249.8 302.8,246.6 302.2,248.7 				"/>
			</g>
			<g>
				<polygon fill="#353F49" points="314.6,279.8 314,277.8 302.2,280.9 302.8,283 				"/>
			</g>
			<g>
				<polygon fill="#353F49" points="329,303.8 327.5,302.3 318.9,310.9 320.4,312.4 				"/>
			</g>
			<g>
				
					<rect x="344.8" y="321.8" transform="matrix(0.2592 -0.9658 0.9658 0.2592 -51.9146 578.1273)" fill="#353F49" width="12.2" height="2.2"/>
			</g>
			<g>
				<polygon fill="#353F49" points="381.5,316.7 379.4,317.3 382.6,329.1 384.7,328.5 				"/>
			</g>
			<g>
				
					<rect x="407.9" y="301.2" transform="matrix(0.7063 -0.7079 0.7079 0.7063 -97.4493 379.7998)" fill="#353F49" width="2.2" height="12.2"/>
			</g>
			<g>
				<polygon fill="#353F49" points="418.9,277.8 418.4,279.8 430.2,283 430.8,280.9 				"/>
			</g>
			<g>
				<polygon fill="#353F49" points="418.4,249.8 418.9,251.9 430.8,248.7 430.2,246.6 				"/>
			</g>
			<g>
				
					<rect x="402.9" y="221.2" transform="matrix(0.7061 -0.7081 0.7081 0.7061 -37.2048 354.9492)" fill="#353F49" width="12.2" height="2.2"/>
			</g>
			<g>
				<polygon fill="#353F49" points="379.4,212.4 381.5,212.9 384.7,201.1 382.6,200.5 				"/>
			</g>
			<g>
				
					<rect x="349.8" y="200.6" transform="matrix(0.9658 -0.2592 0.2592 0.9658 -41.5914 98.0221)" fill="#353F49" width="2.2" height="12.2"/>
			</g>
		</g>
		<g>
			<g>
				<rect x="347.4" y="235.7" fill="#353F49" width="3.6" height="0.6"/>
			</g>
			<g>
				
					<rect x="349.8" y="244.5" transform="matrix(0.8611 -0.5085 0.5085 0.8611 -75.6504 212.7607)" fill="#353F49" width="3.6" height="0.6"/>
			</g>
			<g>
				<polygon fill="#353F49" points="359.1,249.9 358.6,249.5 356.8,252.6 357.4,253 				"/>
			</g>
			<g>
				<rect x="366.4" y="251.8" fill="#353F49" width="0.6" height="3.6"/>
			</g>
			<g>
				<polygon fill="#353F49" points="374.9,249.5 374.4,249.9 376.1,253 376.7,252.6 				"/>
			</g>
			<g>
				<polygon fill="#353F49" points="380.6,243.7 380.2,244.2 383.3,246 383.6,245.5 				"/>
			</g>
			<g>
				<rect x="382.5" y="235.7" fill="#353F49" width="3.6" height="0.6"/>
			</g>
			<g>
				<polygon fill="#353F49" points="380.2,227.9 380.6,228.5 383.6,226.7 383.3,226.1 				"/>
			</g>
			<g>
				<polygon fill="#353F49" points="374.4,222.3 374.9,222.6 376.7,219.5 376.1,219.2 				"/>
			</g>
			<g>
				<rect x="366.4" y="216.7" fill="#353F49" width="0.6" height="3.6"/>
			</g>
			<g>
				<polygon fill="#353F49" points="358.6,222.6 359.1,222.3 357.4,219.2 356.8,219.5 				"/>
			</g>
			<g>
				<polygon fill="#353F49" points="352.9,228.5 353.3,227.9 350.2,226.1 349.9,226.7 				"/>
			</g>
		</g>
		<g>
			<rect x="366.3" y="262.4" fill="#353F49" width="47.2" height="4.4"/>
		</g>
		<g>
			<path fill="#F77B55" d="M370.8,264.6c0,2.3-1.8,4.1-4.1,4.1c-2.3,0-4.1-1.8-4.1-4.1c0-2.3,1.8-4.1,4.1-4.1
				C369,260.5,370.8,262.3,370.8,264.6z"/>
		</g>
		<g>
			<rect x="365.9" y="222.9" fill="#353F49" width="1.7" height="12"/>
		</g>
		<g>
			<path fill="#F77B55" d="M369.2,235.2c0,1.4-1.1,2.5-2.5,2.5c-1.4,0-2.5-1.1-2.5-2.5c0-1.4,1.1-2.5,2.5-2.5
				C368.1,232.7,369.2,233.8,369.2,235.2z"/>
		</g>
		<g>
			<rect x="356.6" y="168.1" fill="#FFFFFF" width="12.3" height="2.1"/>
		</g>
	</g>
</g>
</svg>
