<?xml version="1.0" encoding="utf-8"?>
<!-- Generator: Adobe Illustrator 24.0.2, SVG Export Plug-In . SVG Version: 6.00 Build 0)  -->
<svg version="1.1" xmlns="http://www.w3.org/2000/svg" xmlns:xlink="http://www.w3.org/1999/xlink" x="0px" y="0px"
	 viewBox="0 0 512 512" style="enable-background:new 0 0 512 512;" xml:space="preserve">
<style type="text/css">
	.st0{fill:#C5E9F9;}
	.st1{fill:#5E889E;}
</style>
<g id="Layer_2">
	<circle class="st0" cx="256.3281" cy="255.9678" r="248.873"/>
</g>
<g id="Layer_1">
	<g>
		<path class="st1" d="M296.7096,372.08V349.3c0-1.2695-0.4862-2.5422-1.4572-3.5132c-0.9678-0.9709-2.2358-1.454-3.5085-1.454
			h-67.8445c-1.2711,0-2.5407,0.4832-3.5116,1.454c-0.9694,0.9709-1.454,2.2452-1.454,3.5132v22.78l-26.62,14.7062
			c-0.2595,0.1516-0.4894,0.3596-0.652,0.6441c-0.1626,0.2736-0.2439,0.5816-0.2439,0.8834v3.227
			c0,0.4472,0.1689,0.8943,0.5113,1.232c0.3377,0.344,0.7817,0.5113,1.2305,0.5113h129.3239c0.4471,0,0.8912-0.1673,1.2289-0.5113
			c0.344-0.3377,0.5113-0.7849,0.5113-1.232v-3.227c0-0.3018-0.0782-0.6113-0.2439-0.8834
			c-0.1626-0.2845-0.3925-0.4925-0.6567-0.6441L296.7096,372.08z"/>
		<path class="st1" d="M410.7145,131.0573c-2.303-2.3062-5.3159-3.4537-8.3318-3.4537H113.2639
			c-3.0175,0-6.0335,1.1492-8.3334,3.4537c-2.3077,2.3015-3.4569,5.3174-3.4569,8.3318v187.1527
			c0,3.0175,1.1476,6.0351,3.4569,8.3381c2.2999,2.303,5.3143,3.4537,8.3334,3.4537h289.1187c3.016,0,6.0288-1.1507,8.3318-3.4537
			c2.3062-2.303,3.4568-5.3206,3.4568-8.3381V139.3891C414.1713,136.3747,413.0206,133.3587,410.7145,131.0573z M257.8225,333.3383
			c-2.8784,0-5.2127-2.3312-5.2127-5.2096s2.3343-5.2158,5.2127-5.2158c2.8815,0,5.2111,2.3374,5.2111,5.2158
			S260.704,333.3383,257.8225,333.3383z M393.7803,317.9411H121.8662V147.9946h271.9141V317.9411z"/>
		<g>
			<path class="st1" d="M165.5892,301.945c-0.6301,0-1.2555,0.2376-1.7355,0.7145c-0.4831,0.4894-0.7176,1.1116-0.7176,1.7386
				v1.8606h26.2619v-1.8606c0-0.627-0.2408-1.2508-0.7239-1.7386c-0.4737-0.4769-1.1054-0.7145-1.7261-0.7145H165.5892z"/>
			<path class="st1" d="M197.6485,271.6212c-0.6223,0-1.2523,0.2376-1.7292,0.7145c-0.48,0.4831-0.7161,1.1116-0.7161,1.7386
				v32.1844h26.2541v-32.1844c0-0.627-0.2345-1.257-0.7161-1.7386c-0.4831-0.4769-1.1054-0.7145-1.7355-0.7145H197.6485z"/>
			<path class="st1" d="M229.7141,259.1539c-0.6285,0-1.2539,0.2345-1.7355,0.713c-0.48,0.4831-0.7161,1.1101-0.7161,1.7386v44.6563
				h26.2603v-44.6563c0-0.6285-0.2392-1.2555-0.7176-1.7386c-0.4706-0.4769-1.1054-0.713-1.7323-0.713H229.7141z"/>
			<path class="st1" d="M261.7812,264.3134c-0.6301,0-1.257,0.2314-1.7323,0.7145c-0.4831,0.4831-0.7208,1.1054-0.7208,1.7386
				v39.4937H285.59v-39.4937c0-0.6332-0.2345-1.257-0.7239-1.7386c-0.4738-0.4831-1.0992-0.7145-1.7261-0.7145
				C283.14,264.3134,261.7812,264.3134,261.7812,264.3134z"/>
			<path class="st1" d="M293.8437,244.2742c-0.6332,0-1.2602,0.2408-1.7386,0.7161c-0.4769,0.4831-0.7208,1.1069-0.7208,1.7355
				v59.5361h26.2713v-59.5376c0-0.627-0.2439-1.2524-0.727-1.7355c-0.4722-0.4737-1.0992-0.7161-1.7292-0.7161h-21.3557V244.2742z"
				/>
			<path class="st1" d="M325.9062,219.2615c-0.6285,0-1.2539,0.2377-1.7355,0.7177c-0.4737,0.4769-0.7145,1.1069-0.7145,1.7323
				v84.5472h26.2588V221.713c0-0.6254-0.2345-1.257-0.7192-1.7323c-0.4769-0.48-1.1069-0.7176-1.7308-0.7176h-21.3588V219.2615z"/>
			<path class="st1" d="M369.4352,172.4569c0.3315-0.5613,0.3049-1.2883-0.1173-1.834c-0.4237-0.541-1.1273-0.7442-1.7495-0.5613
				l-26.2353,7.6877c-0.4987,0.1485-0.924,0.5285-1.0992,1.0663c-0.1735,0.5378-0.0516,1.096,0.2658,1.5056l3.1832,4.0823
				l-79.4627,61.9845l-44.0372-18.6602l-73.4386,69.7285c-0.4534,0.4362-0.7442,1.035-0.7645,1.7151
				c-0.0078,0.6754,0.2408,1.2977,0.6785,1.7574l3.3787,3.5507c0.4331,0.4534,1.0381,0.7505,1.712,0.7677
				c0.677,0.0125,1.2993-0.2439,1.7527-0.6817l68.77-65.2991l43.4337,18.3976l84.0094-65.5321l3.1833,4.076
				c0.3189,0.4065,0.8302,0.6629,1.39,0.6254c0.5628-0.0375,1.0381-0.3487,1.3024-0.8052L369.4352,172.4569z"/>
		</g>
	</g>
</g>
</svg>
