<?xml version="1.0" encoding="utf-8"?>
<!-- Generator: Adobe Illustrator 24.0.2, SVG Export Plug-In . SVG Version: 6.00 Build 0)  -->
<svg version="1.1" id="Layer_1" xmlns="http://www.w3.org/2000/svg" xmlns:xlink="http://www.w3.org/1999/xlink" width="150px" height="150px"
	 viewBox="0 0 512 512" enable-background="new 0 0 512 512" xml:space="preserve">
<g>
	<g>
		<path fill="#CDCCCA" d="M376.4,293.3l-0.1-6.2c1.7,0,3.5-0.1,5.2-0.1l0.3,6.2C380.1,293.3,378.3,293.3,376.4,293.3z M358.4,292.1
			c-1.8-0.3-3.6-0.5-5.4-0.9l1.1-6.1c1.7,0.3,3.4,0.6,5.1,0.8L358.4,292.1z M399.9,291l-1.2-6.1c1.7-0.3,3.4-0.7,5-1.1l1.5,6.1
			C403.4,290.2,401.7,290.6,399.9,291z M335.4,286.6c-1.7-0.6-3.4-1.2-5.1-1.9l2.3-5.8c1.6,0.6,3.2,1.2,4.9,1.8L335.4,286.6z
			 M422.4,284.2l-2.4-5.8c1.6-0.6,3.2-1.3,4.7-2.1l2.6,5.7C425.8,282.8,424.1,283.5,422.4,284.2z M314,276.9
			c-1.6-0.9-3.1-1.8-4.7-2.8l3.3-5.3c1.5,0.9,2.9,1.8,4.4,2.7L314,276.9z M443.3,273.3l-3.4-5.2c1.5-0.9,2.9-1.9,4.3-2.9l3.6,5.1
			C446.3,271.3,444.8,272.3,443.3,273.3z M294.8,263.3c-1.4-1.2-2.7-2.4-4-3.6l4.3-4.5c1.3,1.2,2.5,2.3,3.8,3.5L294.8,263.3z
			 M461.7,258.7l-4.3-4.5c1.2-1.2,2.5-2.4,3.6-3.7l4.5,4.3C464.3,256.1,463,257.4,461.7,258.7z M278.4,246.3
			c-1.1-1.4-2.2-2.9-3.3-4.3l5.1-3.6c1,1.4,2.1,2.8,3.1,4.1L278.4,246.3z M477.1,240.8l-5.1-3.6c1-1.4,2-2.8,2.9-4.3l5.3,3.4
			C479.1,237.8,478.1,239.3,477.1,240.8z M265.6,226.5c-0.8-1.6-1.6-3.2-2.4-4.9l5.7-2.6c0.7,1.6,1.5,3.1,2.3,4.6L265.6,226.5z
			 M488.8,220.4l-5.7-2.6c0.7-1.6,1.4-3.2,2-4.8l5.8,2.3C490.3,217,489.5,218.7,488.8,220.4z M256.8,204.7c-0.5-1.7-1-3.5-1.4-5.3
			l6.1-1.5c0.4,1.7,0.9,3.3,1.4,5L256.8,204.7z M496.4,198l-6.1-1.4c0.4-1.7,0.8-3.4,1.1-5.1l6.1,1.2
			C497.2,194.5,496.8,196.3,496.4,198z M252.2,181.6c-0.2-1.8-0.3-3.6-0.4-5.4l6.2-0.4c0.1,1.7,0.2,3.5,0.4,5.2L252.2,181.6z
			 M499.6,174.7l-6.2-0.3c0.1-1.7,0.1-3.4,0.1-5.2v-1l6.2-0.1v1.2C499.8,171.1,499.7,172.9,499.6,174.7z M258.4,158.6l-6.2-0.6
			c0.2-1.8,0.4-3.6,0.6-5.4l6.2,0.8C258.7,155.2,258.5,156.9,258.4,158.6z M492.1,151c-0.3-1.7-0.6-3.4-0.9-5.1l6.1-1.2
			c0.4,1.8,0.7,3.6,1,5.4L492.1,151z M262.5,136.6l-6-1.7c0.5-1.7,1-3.5,1.6-5.2l5.9,2C263.5,133.3,262.9,135,262.5,136.6z
			 M486.6,129.4c-0.6-1.6-1.2-3.2-1.9-4.8l5.8-2.4c0.7,1.7,1.3,3.4,2,5.1L486.6,129.4z M270.7,115.8l-5.6-2.8
			c0.8-1.6,1.7-3.2,2.6-4.8l5.4,3.1C272.3,112.8,271.5,114.3,270.7,115.8z M477.1,109.1c-0.9-1.5-1.8-2.9-2.7-4.4l5.2-3.4
			c1,1.5,2,3.1,2.9,4.6L477.1,109.1z M282.7,96.9l-4.9-3.8c1.1-1.4,2.3-2.8,3.4-4.2l4.7,4.1C284.8,94.2,283.8,95.6,282.7,96.9z
			 M463.9,91.1c-1.1-1.3-2.3-2.6-3.5-3.8l4.5-4.3c1.3,1.3,2.5,2.6,3.7,4L463.9,91.1z M298.1,80.7L294,76c1.4-1.2,2.7-2.4,4.2-3.5
			l3.9,4.9C300.7,78.4,299.4,79.5,298.1,80.7z M447.5,75.8c-1.4-1.1-2.8-2.1-4.2-3.1l3.6-5.1c1.5,1,3,2.1,4.4,3.2L447.5,75.8z
			 M316.2,67.6l-3.2-5.4c1.6-0.9,3.1-1.8,4.7-2.6l2.9,5.5C319.2,65.9,317.7,66.7,316.2,67.6z M428.6,63.9c-1.5-0.8-3.1-1.5-4.7-2.2
			l2.6-5.7c1.7,0.7,3.3,1.5,4.9,2.4L428.6,63.9z M336.5,58.1l-2.1-5.9c1.7-0.6,3.4-1.2,5.2-1.7l1.8,6
			C339.7,57,338.1,57.6,336.5,58.1z M407.7,55.8c-1.7-0.5-3.3-0.9-5-1.3l1.4-6.1c1.8,0.4,3.5,0.9,5.3,1.4L407.7,55.8z M358.2,52.7
			l-0.9-6.2c1.8-0.3,3.6-0.5,5.4-0.7l0.7,6.2C361.6,52.3,359.9,52.5,358.2,52.7z M385.7,51.9c-1.7-0.1-3.4-0.3-5.2-0.3l0.2-6.2
			c1.8,0.1,3.6,0.2,5.4,0.3L385.7,51.9z"/>
	</g>
</g>
<g>
	<g>
		<path fill="#353F49" d="M384.3,248.6c0,102.8-83.4,186.2-186.2,186.2c-102.8,0-186.2-83.4-186.2-186.2
			c0-102.8,83.4-186.2,186.2-186.2C300.9,62.4,384.3,145.7,384.3,248.6z"/>
	</g>
</g>
<g>
	<g>
		<g>
			<path fill="#CDCCCA" d="M261.9,73.6c-19.9-7.3-41.4-11.2-63.8-11.2c-17.2,0-33.8,2.4-49.6,6.7l49.6,179.5L261.9,73.6z"/>
		</g>
	</g>
	<g>
		<g>
			<path fill="#92E0EA" d="M148.5,69.1C89.1,85.5,41.6,130.5,21.9,188.4l176.2,60.2L148.5,69.1z"/>
		</g>
	</g>
	<g>
		<g>
			<path fill="#F77B55" d="M21.7,188.8c-6.4,18.8-9.9,38.8-9.9,59.8c0,61.8,30.1,116.5,76.5,150.4l109.7-150.4L21.7,188.8z"/>
		</g>
	</g>
	<g>
		<g>
			<path fill="#FFDB7A" d="M175.4,433.4c7.4,0.9,15,1.4,22.7,1.4c40.4,0,77.7-12.9,108.2-34.7L198.1,248.6L175.4,433.4z"/>
		</g>
	</g>
	<g>
		<g>
			<path fill="#353F49" d="M306.4,400c13.8-9.9,26.2-21.6,36.8-34.9L198.1,248.6L306.4,400z"/>
		</g>
	</g>
</g>
<g>
	<g>
		<path fill="#FCD751" d="M453.7,153.7c0,48.7-39.5,88.2-88.2,88.2c-48.7,0-88.2-39.5-88.2-88.2c0-48.7,39.5-88.2,88.2-88.2
			C414.3,65.5,453.7,105,453.7,153.7z"/>
	</g>
</g>
<g>
	<g>
		<path fill="#FFFFFF" d="M373.2,156.9c-3.5-2-4.2-5.3-4.2-7.6c0-2.3,0.7-5.6,4.2-7.6c5.6-3.2,16-3.6,22.3-14
			c6.4-10.4,4-23.9,4-23.9h-31.1h-13.2h-31.1c0,0-2.4,13.6,4,23.9c6.4,10.4,16.8,10.8,22.3,14c3.4,2,4.2,5.3,4.2,7.6
			c0,2.3-0.7,5.6-4.2,7.6c-5.6,3.2-16,3.6-22.3,14c-6.4,10.4-4,23.9-4,23.9h31.1h13.2h31.1c0,0,2.4-13.6-4-23.9
			C389.1,160.5,378.8,160.1,373.2,156.9z"/>
	</g>
</g>
<g>
	<g>
		<rect x="326.9" y="182.8" fill="#77D0DE" width="69.9" height="9.4"/>
	</g>
</g>
<g>
	<g>
		<rect x="319.1" y="94.7" fill="#FFFFFF" width="85.5" height="6.7"/>
	</g>
</g>
<g>
	<g>
		<rect x="319.1" y="196.9" fill="#FFFFFF" width="85.5" height="6.7"/>
	</g>
</g>
<g>
	<g>
		<path fill="#77D0DE" d="M364.6,151c0,1.2-1,2.2-2.2,2.2c-1.2,0-2.2-1-2.2-2.2c0-1.2,1-2.2,2.2-2.2
			C363.6,148.8,364.6,149.8,364.6,151z"/>
	</g>
</g>
<g>
	<g>
		<path fill="#77D0DE" d="M364.6,157.2c0,1.2-1,2.2-2.2,2.2c-1.2,0-2.2-1-2.2-2.2c0-1.2,1-2.2,2.2-2.2
			C363.6,155,364.6,156,364.6,157.2z"/>
	</g>
</g>
<g>
	<g>
		<path fill="#77D0DE" d="M364.6,163.4c0,1.2-1,2.2-2.2,2.2c-1.2,0-2.2-1-2.2-2.2c0-1.2,1-2.2,2.2-2.2
			C363.6,161.1,364.6,162.1,364.6,163.4z"/>
	</g>
</g>
<g>
	<g>
		<path fill="#77D0DE" d="M364.6,169.5c0,1.2-1,2.2-2.2,2.2c-1.2,0-2.2-1-2.2-2.2c0-1.2,1-2.2,2.2-2.2
			C363.6,167.3,364.6,168.3,364.6,169.5z"/>
	</g>
</g>
<g>
	<g>
		<path fill="#77D0DE" d="M364.6,179.5c0,1.2-1,2.2-2.2,2.2c-1.2,0-2.2-1-2.2-2.2c0-1.2,1-2.2,2.2-2.2
			C363.6,177.3,364.6,178.3,364.6,179.5z"/>
	</g>
</g>
<g>
	<g>
		<path fill="#77D0DE" d="M388.3,129.8c0.6-0.6,0.7-1.5,1-2.3h-55.1c0.3,0.8,0.4,1.7,1,2.3c7.4,7.9,16.3,8.2,20.3,10.9
			c2.5,1.7,3,5.3,3,7.2c0,0.5,0,1.3-0.2,2.1c1.1,0.1,2.3,0.2,3.5,0.2c1.3,0,2.6-0.1,3.9-0.3c-0.1-0.9-0.1-1.6-0.1-2.1
			c0-1.9,0.5-5.5,3-7.2C372.8,138.1,380.8,138.1,388.3,129.8z"/>
	</g>
</g>
<g>
	<path fill="#F2F2F2" d="M198.1,248.6l-110,150.2c25.2,18.5,55.2,30.7,87.7,34.6L198.1,248.6z"/>
</g>
</svg>
