<?xml version="1.0" encoding="utf-8"?>
<!-- Generator: Adobe Illustrator 24.0.2, SVG Export Plug-In . SVG Version: 6.00 Build 0)  -->
<svg version="1.1" id="Layer_1" xmlns="http://www.w3.org/2000/svg" xmlns:xlink="http://www.w3.org/1999/xlink" width="150px" height="150px"
	 viewBox="0 0 512 512" enable-background="new 0 0 512 512" xml:space="preserve">
<g>
	<g>
		<g>
			<g>
				<g>
					<path fill="#F77B55" d="M64.8,98.1c0,4.6-3.8,8.4-8.4,8.4c-4.6,0-8.4-3.8-8.4-8.4c0-4.6,3.8-8.4,8.4-8.4
						C61,89.7,64.8,93.5,64.8,98.1z"/>
				</g>
			</g>
			<g>
				<g>
					<path fill="#F77B55" d="M56.4,108.5c-8.3,0-15,6.7-15,15v4.6c0,0.8,0.1,1.6,0.2,2.3c4.4,2.5,9.4,4,14.8,4
						c5.4,0,10.5-1.5,14.8-4c0.1-0.8,0.2-1.5,0.2-2.3v-4.6C71.4,115.3,64.7,108.5,56.4,108.5z"/>
				</g>
			</g>
		</g>
		<g>
			<g>
				<g>
					<path fill="#353F49" d="M164.5,98.1c0,4.6-3.8,8.4-8.4,8.4c-4.6,0-8.4-3.8-8.4-8.4c0-4.6,3.8-8.4,8.4-8.4
						C160.7,89.7,164.5,93.5,164.5,98.1z"/>
				</g>
			</g>
			<g>
				<g>
					<path fill="#353F49" d="M156.1,108.5c-8.3,0-15,6.7-15,15v4.6c0,0.8,0.1,1.6,0.2,2.3c4.4,2.5,9.4,4,14.8,4
						c5.4,0,10.4-1.5,14.8-4c0.1-0.8,0.2-1.5,0.2-2.3v-4.6C171.1,115.3,164.4,108.5,156.1,108.5z"/>
				</g>
			</g>
		</g>
		<g>
			<g>
				<g>
					<path fill="#F77B55" d="M264.2,98.1c0,4.6-3.8,8.4-8.4,8.4c-4.6,0-8.4-3.8-8.4-8.4c0-4.6,3.8-8.4,8.4-8.4
						C260.4,89.7,264.2,93.5,264.2,98.1z"/>
				</g>
			</g>
			<g>
				<g>
					<path fill="#F77B55" d="M255.8,108.5c-8.3,0-15,6.7-15,15v4.6c0,0.8,0.1,1.6,0.2,2.3c4.4,2.5,9.4,4,14.8,4
						c5.4,0,10.4-1.5,14.8-4c0.1-0.8,0.2-1.5,0.2-2.3v-4.6C270.8,115.3,264.1,108.5,255.8,108.5z"/>
				</g>
			</g>
		</g>
		<g>
			<g>
				<g>
					<path fill="#353F49" d="M363.9,98.1c0,4.6-3.8,8.4-8.4,8.4c-4.6,0-8.4-3.8-8.4-8.4c0-4.6,3.8-8.4,8.4-8.4
						C360.2,89.7,363.9,93.5,363.9,98.1z"/>
				</g>
			</g>
			<g>
				<g>
					<path fill="#353F49" d="M355.5,108.5c-8.3,0-15,6.7-15,15v4.6c0,0.8,0.1,1.6,0.2,2.3c4.4,2.5,9.4,4,14.8,4
						c5.4,0,10.4-1.5,14.8-4c0.1-0.8,0.2-1.5,0.2-2.3v-4.6C370.5,115.3,363.8,108.5,355.5,108.5z"/>
				</g>
			</g>
		</g>
		<g>
			<g>
				<g>
					<path fill="#F77B55" d="M463.6,98.1c0,4.6-3.8,8.4-8.4,8.4c-4.6,0-8.4-3.8-8.4-8.4c0-4.6,3.8-8.4,8.4-8.4
						C459.9,89.7,463.6,93.5,463.6,98.1z"/>
				</g>
			</g>
			<g>
				<g>
					<path fill="#F77B55" d="M455.2,108.5c-8.3,0-15,6.7-15,15v4.6c0,0.8,0.1,1.6,0.2,2.3c4.4,2.5,9.4,4,14.8,4
						c5.4,0,10.4-1.5,14.8-4c0.1-0.8,0.2-1.5,0.2-2.3v-4.6C470.2,115.3,463.5,108.5,455.2,108.5z"/>
				</g>
			</g>
		</g>
	</g>
	<g>
		<g>
			<g>
				<g>
					<path fill="#353F49" d="M64.8,195.7c0,4.6-3.8,8.4-8.4,8.4c-4.6,0-8.4-3.8-8.4-8.4c0-4.6,3.8-8.4,8.4-8.4
						C61,187.3,64.8,191,64.8,195.7z"/>
				</g>
			</g>
			<g>
				<g>
					<path fill="#353F49" d="M56.4,206.1c-8.3,0-15,6.7-15,15v4.6c0,0.8,0.1,1.6,0.2,2.3c4.4,2.5,9.4,4,14.8,4
						c5.4,0,10.5-1.5,14.8-4c0.1-0.8,0.2-1.5,0.2-2.3v-4.6C71.4,212.8,64.7,206.1,56.4,206.1z"/>
				</g>
			</g>
		</g>
		<g>
			<g>
				<g>
					<path fill="#353F49" d="M164.5,195.7c0,4.6-3.8,8.4-8.4,8.4c-4.6,0-8.4-3.8-8.4-8.4c0-4.6,3.8-8.4,8.4-8.4
						C160.7,187.3,164.5,191,164.5,195.7z"/>
				</g>
			</g>
			<g>
				<g>
					<path fill="#353F49" d="M156.1,206.1c-8.3,0-15,6.7-15,15v4.6c0,0.8,0.1,1.6,0.2,2.3c4.4,2.5,9.4,4,14.8,4
						c5.4,0,10.4-1.5,14.8-4c0.1-0.8,0.2-1.5,0.2-2.3v-4.6C171.1,212.8,164.4,206.1,156.1,206.1z"/>
				</g>
			</g>
		</g>
		<g>
			<g>
				<g>
					<path fill="#353F49" d="M264.2,195.7c0,4.6-3.8,8.4-8.4,8.4c-4.6,0-8.4-3.8-8.4-8.4c0-4.6,3.8-8.4,8.4-8.4
						C260.4,187.3,264.2,191,264.2,195.7z"/>
				</g>
			</g>
			<g>
				<g>
					<path fill="#353F49" d="M255.8,206.1c-8.3,0-15,6.7-15,15v4.6c0,0.8,0.1,1.6,0.2,2.3c4.4,2.5,9.4,4,14.8,4
						c5.4,0,10.4-1.5,14.8-4c0.1-0.8,0.2-1.5,0.2-2.3v-4.6C270.8,212.8,264.1,206.1,255.8,206.1z"/>
				</g>
			</g>
		</g>
		<g>
			<g>
				<g>
					<path fill="#353F49" d="M363.9,195.7c0,4.6-3.8,8.4-8.4,8.4c-4.6,0-8.4-3.8-8.4-8.4c0-4.6,3.8-8.4,8.4-8.4
						C360.2,187.3,363.9,191,363.9,195.7z"/>
				</g>
			</g>
			<g>
				<g>
					<path fill="#353F49" d="M355.5,206.1c-8.3,0-15,6.7-15,15v4.6c0,0.8,0.1,1.6,0.2,2.3c4.4,2.5,9.4,4,14.8,4
						c5.4,0,10.4-1.5,14.8-4c0.1-0.8,0.2-1.5,0.2-2.3v-4.6C370.5,212.8,363.8,206.1,355.5,206.1z"/>
				</g>
			</g>
		</g>
		<g>
			<g>
				<g>
					<path fill="#353F49" d="M463.6,195.7c0,4.6-3.8,8.4-8.4,8.4c-4.6,0-8.4-3.8-8.4-8.4c0-4.6,3.8-8.4,8.4-8.4
						C459.9,187.3,463.6,191,463.6,195.7z"/>
				</g>
			</g>
			<g>
				<g>
					<path fill="#353F49" d="M455.2,206.1c-8.3,0-15,6.7-15,15v4.6c0,0.8,0.1,1.6,0.2,2.3c4.4,2.5,9.4,4,14.8,4
						c5.4,0,10.4-1.5,14.8-4c0.1-0.8,0.2-1.5,0.2-2.3v-4.6C470.2,212.8,463.5,206.1,455.2,206.1z"/>
				</g>
			</g>
		</g>
	</g>
	<g>
		<g>
			<g>
				<g>
					<path fill="#353F49" d="M64.8,293.2c0,4.6-3.8,8.4-8.4,8.4c-4.6,0-8.4-3.8-8.4-8.4c0-4.6,3.8-8.4,8.4-8.4
						C61,284.8,64.8,288.6,64.8,293.2z"/>
				</g>
			</g>
			<g>
				<g>
					<path fill="#F77B55" d="M56.4,303.7c-8.3,0-15,6.7-15,15v4.6c0,0.8,0.1,1.6,0.2,2.3c4.4,2.5,9.4,4,14.8,4
						c5.4,0,10.5-1.5,14.8-4c0.1-0.8,0.2-1.5,0.2-2.3v-4.6C71.4,310.4,64.7,303.7,56.4,303.7z"/>
				</g>
			</g>
		</g>
		<g>
			<g>
				<g>
					<path fill="#353F49" d="M164.5,293.2c0,4.6-3.8,8.4-8.4,8.4c-4.6,0-8.4-3.8-8.4-8.4c0-4.6,3.8-8.4,8.4-8.4
						C160.7,284.8,164.5,288.6,164.5,293.2z"/>
				</g>
			</g>
			<g>
				<g>
					<path fill="#353F49" d="M156.1,303.7c-8.3,0-15,6.7-15,15v4.6c0,0.8,0.1,1.6,0.2,2.3c4.4,2.5,9.4,4,14.8,4
						c5.4,0,10.4-1.5,14.8-4c0.1-0.8,0.2-1.5,0.2-2.3v-4.6C171.1,310.4,164.4,303.7,156.1,303.7z"/>
				</g>
			</g>
		</g>
		<g>
			<g>
				<g>
					<path fill="#353F49" d="M264.2,293.2c0,4.6-3.8,8.4-8.4,8.4c-4.6,0-8.4-3.8-8.4-8.4c0-4.6,3.8-8.4,8.4-8.4
						C260.4,284.8,264.2,288.6,264.2,293.2z"/>
				</g>
			</g>
			<g>
				<g>
					<path fill="#353F49" d="M255.8,303.7c-8.3,0-15,6.7-15,15v4.6c0,0.8,0.1,1.6,0.2,2.3c4.4,2.5,9.4,4,14.8,4
						c5.4,0,10.4-1.5,14.8-4c0.1-0.8,0.2-1.5,0.2-2.3v-4.6C270.8,310.4,264.1,303.7,255.8,303.7z"/>
				</g>
			</g>
		</g>
		<g>
			<g>
				<g>
					<path fill="#353F49" d="M363.9,293.2c0,4.6-3.8,8.4-8.4,8.4c-4.6,0-8.4-3.8-8.4-8.4c0-4.6,3.8-8.4,8.4-8.4
						C360.2,284.8,363.9,288.6,363.9,293.2z"/>
				</g>
			</g>
			<g>
				<g>
					<path fill="#353F49" d="M355.5,303.7c-8.3,0-15,6.7-15,15v4.6c0,0.8,0.1,1.6,0.2,2.3c4.4,2.5,9.4,4,14.8,4
						c5.4,0,10.4-1.5,14.8-4c0.1-0.8,0.2-1.5,0.2-2.3v-4.6C370.5,310.4,363.8,303.7,355.5,303.7z"/>
				</g>
			</g>
		</g>
		<g>
			<g>
				<g>
					<path fill="#353F49" d="M463.6,293.2c0,4.6-3.8,8.4-8.4,8.4c-4.6,0-8.4-3.8-8.4-8.4c0-4.6,3.8-8.4,8.4-8.4
						C459.9,284.8,463.6,288.6,463.6,293.2z"/>
				</g>
			</g>
			<g>
				<g>
					<path fill="#F77B55" d="M455.2,303.7c-8.3,0-15,6.7-15,15v4.6c0,0.8,0.1,1.6,0.2,2.3c4.4,2.5,9.4,4,14.8,4
						c5.4,0,10.4-1.5,14.8-4c0.1-0.8,0.2-1.5,0.2-2.3v-4.6C470.2,310.4,463.5,303.7,455.2,303.7z"/>
				</g>
			</g>
		</g>
	</g>
	<g>
		<g>
			<g>
				<g>
					<path fill="#353F49" d="M64.8,390.8c0,4.6-3.8,8.4-8.4,8.4c-4.6,0-8.4-3.8-8.4-8.4c0-4.6,3.8-8.4,8.4-8.4
						C61,382.4,64.8,386.2,64.8,390.8z"/>
				</g>
			</g>
			<g>
				<g>
					<path fill="#353F49" d="M56.4,401.2c-8.3,0-15,6.7-15,15v4.6c0,0.8,0.1,1.6,0.2,2.3c4.4,2.5,9.4,4,14.8,4
						c5.4,0,10.5-1.5,14.8-4c0.1-0.8,0.2-1.5,0.2-2.3v-4.6C71.4,407.9,64.7,401.2,56.4,401.2z"/>
				</g>
			</g>
		</g>
		<g>
			<g>
				<g>
					<path fill="#F77B55" d="M164.5,390.8c0,4.6-3.8,8.4-8.4,8.4c-4.6,0-8.4-3.8-8.4-8.4c0-4.6,3.8-8.4,8.4-8.4
						C160.7,382.4,164.5,386.2,164.5,390.8z"/>
				</g>
			</g>
			<g>
				<g>
					<path fill="#F77B55" d="M156.1,401.2c-8.3,0-15,6.7-15,15v4.6c0,0.8,0.1,1.6,0.2,2.3c4.4,2.5,9.4,4,14.8,4
						c5.4,0,10.4-1.5,14.8-4c0.1-0.8,0.2-1.5,0.2-2.3v-4.6C171.1,407.9,164.4,401.2,156.1,401.2z"/>
				</g>
			</g>
		</g>
		<g>
			<g>
				<g>
					<path fill="#353F49" d="M264.2,390.8c0,4.6-3.8,8.4-8.4,8.4c-4.6,0-8.4-3.8-8.4-8.4c0-4.6,3.8-8.4,8.4-8.4
						C260.4,382.4,264.2,386.2,264.2,390.8z"/>
				</g>
			</g>
			<g>
				<g>
					<path fill="#353F49" d="M255.8,401.2c-8.3,0-15,6.7-15,15v4.6c0,0.8,0.1,1.6,0.2,2.3c4.4,2.5,9.4,4,14.8,4
						c5.4,0,10.4-1.5,14.8-4c0.1-0.8,0.2-1.5,0.2-2.3v-4.6C270.8,407.9,264.1,401.2,255.8,401.2z"/>
				</g>
			</g>
		</g>
		<g>
			<g>
				<g>
					<path fill="#F77B55" d="M363.9,390.8c0,4.6-3.8,8.4-8.4,8.4c-4.6,0-8.4-3.8-8.4-8.4c0-4.6,3.8-8.4,8.4-8.4
						C360.2,382.4,363.9,386.2,363.9,390.8z"/>
				</g>
			</g>
			<g>
				<g>
					<path fill="#F77B55" d="M355.5,401.2c-8.3,0-15,6.7-15,15v4.6c0,0.8,0.1,1.6,0.2,2.3c4.4,2.5,9.4,4,14.8,4
						c5.4,0,10.4-1.5,14.8-4c0.1-0.8,0.2-1.5,0.2-2.3v-4.6C370.5,407.9,363.8,401.2,355.5,401.2z"/>
				</g>
			</g>
		</g>
		<g>
			<g>
				<g>
					<path fill="#353F49" d="M463.6,390.8c0,4.6-3.8,8.4-8.4,8.4c-4.6,0-8.4-3.8-8.4-8.4c0-4.6,3.8-8.4,8.4-8.4
						C459.9,382.4,463.6,386.2,463.6,390.8z"/>
				</g>
			</g>
			<g>
				<g>
					<path fill="#353F49" d="M455.2,401.2c-8.3,0-15,6.7-15,15v4.6c0,0.8,0.1,1.6,0.2,2.3c4.4,2.5,9.4,4,14.8,4
						c5.4,0,10.4-1.5,14.8-4c0.1-0.8,0.2-1.5,0.2-2.3v-4.6C470.2,407.9,463.5,401.2,455.2,401.2z"/>
				</g>
			</g>
		</g>
	</g>
</g>
<g>
	<path fill="#FFFFFF" d="M501.3,273.4c0,0-89.7,87.2-239.3,87.2c-154.8,0-251.7-87.2-251.7-87.2S94.9,156.3,262,156.3
		C401.6,156.3,501.3,273.4,501.3,273.4z"/>
</g>
<g>
	<path fill="#FCD751" d="M466.2,270.4c0,0-76.9,74.8-205.1,74.8c-132.7,0-215.8-74.8-215.8-74.8S117.9,170,261.2,170
		C380.8,170,466.2,270.4,466.2,270.4z"/>
</g>
<g>
	
		<ellipse transform="matrix(0.2298 -0.9732 0.9732 0.2298 -53.3758 449.4501)" fill="#353F49" cx="257.3" cy="258.4" rx="88.4" ry="88.4"/>
</g>
<g>
	<g>
		<polygon fill="#FFFFFF" points="258.4,262.7 217.9,239.3 221.6,232.8 258.4,254.1 311.5,223.5 315.2,230.1 		"/>
	</g>
</g>
<g>
	<path fill="#F77B55" d="M268.5,258.4c0,5.6-4.5,10.2-10.2,10.2c-5.6,0-10.2-4.5-10.2-10.2c0-5.6,4.5-10.2,10.2-10.2
		C264,248.2,268.5,252.8,268.5,258.4z"/>
</g>
<g>
	<g>
		<path fill="#FFFFFF" d="M259.4,185.5c-1.2,1.2-3,1.2-4.2,0c-1.2-1.2-1.2-3,0-4.2c1.2-1.2,3-1.2,4.2,0
			C260.5,182.5,260.5,184.4,259.4,185.5z"/>
	</g>
	<g>
		<path fill="#FFFFFF" d="M222.6,194.2c-0.4,1.6-2.1,2.5-3.6,2.1c-1.6-0.4-2.5-2-2.1-3.6c0.4-1.6,2.1-2.5,3.6-2.1
			C222.1,191,223,192.7,222.6,194.2z"/>
	</g>
	<g>
		<path fill="#FFFFFF" d="M195.1,220.2c0.4,1.6-0.5,3.2-2.1,3.6c-1.6,0.4-3.2-0.5-3.6-2.1c-0.4-1.6,0.5-3.2,2.1-3.6
			C193.1,217.6,194.7,218.6,195.1,220.2z"/>
	</g>
	<g>
		<path fill="#FFFFFF" d="M184.3,256.4c1.2,1.2,1.2,3,0,4.2c-1.2,1.2-3,1.2-4.2,0c-1.2-1.2-1.2-3,0-4.2
			C181.3,255.2,183.2,255.2,184.3,256.4z"/>
	</g>
	<g>
		<path fill="#FFFFFF" d="M193.1,293.1c1.6,0.4,2.5,2,2.1,3.6c-0.4,1.6-2.1,2.5-3.6,2.1c-1.6-0.4-2.5-2-2.1-3.6
			C189.8,293.6,191.5,292.7,193.1,293.1z"/>
	</g>
	<g>
		<path fill="#FFFFFF" d="M219,320.6c1.6-0.4,3.2,0.5,3.6,2.1c0.4,1.6-0.5,3.2-2.1,3.6c-1.6,0.4-3.2-0.5-3.6-2.1
			C216.5,322.6,217.4,321,219,320.6z"/>
	</g>
	<g>
		<path fill="#FFFFFF" d="M255.2,331.4c1.2-1.2,3-1.2,4.2,0c1.2,1.2,1.2,3,0,4.2c-1.2,1.2-3,1.2-4.2,0
			C254,334.4,254,332.5,255.2,331.4z"/>
	</g>
	<g>
		<path fill="#FFFFFF" d="M291.9,322.7c0.4-1.6,2.1-2.5,3.6-2.1c1.6,0.4,2.5,2.1,2.1,3.6c-0.4,1.6-2,2.5-3.6,2.1
			C292.4,325.9,291.5,324.2,291.9,322.7z"/>
	</g>
	<g>
		<path fill="#FFFFFF" d="M319.4,296.7c-0.4-1.6,0.5-3.2,2.1-3.6c1.6-0.4,3.2,0.5,3.6,2.1c0.4,1.6-0.5,3.2-2.1,3.6
			C321.4,299.2,319.8,298.3,319.4,296.7z"/>
	</g>
	<g>
		<path fill="#FFFFFF" d="M330.2,260.5c-1.2-1.2-1.2-3,0-4.2c1.2-1.2,3-1.2,4.2,0c1.2,1.2,1.2,3,0,4.2
			C333.2,261.7,331.4,261.7,330.2,260.5z"/>
	</g>
	<g>
		<path fill="#FFFFFF" d="M321.5,223.8c-1.6-0.4-2.5-2.1-2.1-3.6c0.4-1.6,2-2.5,3.6-2.1c1.6,0.4,2.5,2.1,2.1,3.6
			C324.7,223.3,323.1,224.2,321.5,223.8z"/>
	</g>
	<g>
		<path fill="#FFFFFF" d="M295.5,196.3c-1.6,0.4-3.2-0.5-3.6-2.1c-0.4-1.6,0.5-3.2,2.1-3.6c1.6-0.4,3.2,0.5,3.6,2.1
			C298.1,194.3,297.1,195.9,295.5,196.3z"/>
	</g>
</g>
</svg>
