<?xml version="1.0" encoding="utf-8"?>
<!-- Generator: Adobe Illustrator 24.0.2, SVG Export Plug-In . SVG Version: 6.00 Build 0)  -->
<svg version="1.1" id="Layer_1" xmlns="http://www.w3.org/2000/svg" xmlns:xlink="http://www.w3.org/1999/xlink" width="150px" height="150px"
	 viewBox="0 0 512 512" enable-background="new 0 0 512 512" xml:space="preserve">
<g>
	<g>
		<g>
			<path fill="#AEBFCE" d="M115.6,286.4c-0.1,2-1.3,3.5-2.8,3.4l-13.8-0.7c-1.5-0.1-2.5-1.7-2.4-3.7l0.6-11.1c0.1-2,1.4-3.5,2.8-3.4
				l13.8,0.7c1.4,0.1,2.5,1.7,2.4,3.7L115.6,286.4z"/>
			<path fill="#AEBFCE" d="M110,394.9c0.1-2-1-3.6-2.4-3.7l-13.8-0.7c-1.4-0.1-2.7,1.4-2.8,3.4l-0.6,11.1c-0.1,1.9,1,3.6,2.4,3.7
				l13.8,0.7c1.5,0.1,2.7-1.4,2.8-3.4L110,394.9z"/>
			<path fill="#AEBFCE" d="M87,287.5c0.9,1.7,0.6,3.7-0.7,4.3L74,298.1c-1.3,0.7-3-0.2-3.9-2l-5.1-9.9c-0.9-1.8-0.6-3.7,0.7-4.4
				l12.3-6.3c1.3-0.7,3.1,0.2,3.9,2L87,287.5z"/>
			<path fill="#AEBFCE" d="M136.5,384.2c-0.9-1.8-2.7-2.6-3.9-2l-12.3,6.3c-1.3,0.7-1.6,2.6-0.7,4.4l5.1,9.9c0.9,1.7,2.7,2.6,4,2
				l12.3-6.3c1.3-0.7,1.6-2.6,0.7-4.4L136.5,384.2z"/>
			<path fill="#AEBFCE" d="M62.8,302.7c1.6,1.1,2.3,2.9,1.6,4.1l-7.5,11.6c-0.8,1.2-2.8,1.3-4.4,0.3l-9.3-6.1
				c-1.6-1.1-2.4-2.9-1.6-4.1l7.5-11.6c0.8-1.2,2.8-1.3,4.4-0.3L62.8,302.7z"/>
			<path fill="#AEBFCE" d="M154.1,361.7c-1.6-1.1-3.6-0.9-4.4,0.3l-7.5,11.6c-0.8,1.2-0.1,3.1,1.6,4.1l9.4,6.1
				c1.6,1.1,3.6,0.9,4.4-0.3l7.5-11.6c0.8-1.2,0.1-3-1.5-4.1L154.1,361.7z"/>
			<path fill="#AEBFCE" d="M49.5,327.9c2,0.1,3.5,1.4,3.4,2.8l-0.7,13.8c-0.1,1.4-1.7,2.5-3.7,2.4l-11.1-0.6c-2-0.1-3.5-1.4-3.4-2.8
				l0.7-13.8c0.1-1.5,1.7-2.5,3.7-2.4L49.5,327.9z"/>
			<path fill="#AEBFCE" d="M158,333.4c-2-0.1-3.6,1-3.7,2.4l-0.7,13.8c-0.1,1.5,1.4,2.7,3.4,2.8l11.1,0.6c2,0.1,3.6-1,3.7-2.4
				l0.7-13.8c0.1-1.5-1.5-2.7-3.4-2.8L158,333.4z"/>
			<path fill="#AEBFCE" d="M50.6,356.4c1.7-0.9,3.7-0.6,4.4,0.7l6.3,12.3c0.7,1.3-0.2,3.1-2,4l-9.9,5.1c-1.7,0.9-3.7,0.6-4.4-0.7
				l-6.3-12.3c-0.7-1.3,0.2-3.1,2-3.9L50.6,356.4z"/>
			<path fill="#AEBFCE" d="M147.3,307c-1.7,0.9-2.6,2.7-2,4l6.3,12.3c0.7,1.3,2.6,1.6,4.3,0.7l9.9-5.1c1.7-0.9,2.6-2.7,2-4
				l-6.3-12.3c-0.7-1.3-2.6-1.6-4.4-0.7L147.3,307z"/>
			<path fill="#AEBFCE" d="M65.7,380.6c1.1-1.6,2.9-2.3,4.1-1.6l11.6,7.5c1.2,0.8,1.3,2.8,0.3,4.4l-6.1,9.4
				c-1.1,1.6-2.9,2.3-4.1,1.5L60,394.4c-1.2-0.8-1.3-2.8-0.3-4.4L65.7,380.6z"/>
			<path fill="#AEBFCE" d="M124.8,289.4c-1.1,1.6-0.9,3.6,0.3,4.4l11.6,7.5c1.2,0.8,3,0.1,4.1-1.5l6.1-9.4c1.1-1.6,0.9-3.6-0.3-4.4
				l-11.6-7.5c-1.2-0.8-3.1-0.1-4.1,1.5L124.8,289.4z"/>
			<path fill="#768296" d="M106.2,281.9C74,280.3,46.6,305,45,337.2c-1.6,32.2,23.1,59.6,55.3,61.2c32.2,1.6,59.6-23.1,61.2-55.3
				C163.2,311,138.4,283.5,106.2,281.9z M101.3,378.6c-21.2-1.1-37.5-19.1-36.4-40.3C66,317,84,300.7,105.2,301.8
				c21.2,1.1,37.5,19.1,36.4,40.3C140.6,363.3,122.5,379.6,101.3,378.6z"/>
		</g>
		<g>
			<path fill="#1C4670" d="M147.3,265.6c-0.1,1.4-1,2.6-2,2.5l-10.2-0.5c-1.1-0.1-1.9-1.3-1.8-2.7l0.4-8.2c0.1-1.4,1-2.6,2.1-2.5
				l10.2,0.5c1.1,0.1,1.9,1.3,1.8,2.7L147.3,265.6z"/>
			<path fill="#1C4670" d="M143.3,345.5c0.1-1.5-0.7-2.7-1.8-2.7l-10.2-0.5c-1.1-0.1-2,1.1-2.1,2.5l-0.4,8.2
				c-0.1,1.4,0.7,2.6,1.8,2.7l10.2,0.5c1.1,0.1,2-1.1,2-2.5L143.3,345.5z"/>
			<path fill="#1C4670" d="M126.3,266.4c0.7,1.3,0.4,2.7-0.5,3.2l-9.1,4.6c-0.9,0.5-2.2-0.2-2.9-1.4l-3.7-7.3
				c-0.7-1.3-0.4-2.7,0.5-3.2l9.1-4.6c1-0.5,2.3,0.2,2.9,1.4L126.3,266.4z"/>
			<path fill="#1C4670" d="M162.7,337.6c-0.7-1.3-1.9-1.9-2.9-1.5l-9.1,4.6c-0.9,0.5-1.2,1.9-0.5,3.2l3.7,7.3c0.7,1.3,2,1.9,2.9,1.5
				l9.1-4.6c0.9-0.5,1.2-1.9,0.5-3.2L162.7,337.6z"/>
			<path fill="#1C4670" d="M108.5,277.6c1.2,0.8,1.7,2.1,1.2,3l-5.5,8.6c-0.6,0.9-2,1-3.2,0.2l-6.9-4.5c-1.2-0.8-1.7-2.1-1.1-3
				l5.5-8.6c0.6-0.9,2-1,3.2-0.2L108.5,277.6z"/>
			<path fill="#1C4670" d="M175.6,321c-1.2-0.8-2.7-0.7-3.2,0.2l-5.5,8.6c-0.6,0.9-0.1,2.2,1.1,3l6.9,4.5c1.2,0.8,2.7,0.7,3.2-0.2
				l5.5-8.5c0.6-0.9,0.1-2.2-1.1-3L175.6,321z"/>
			<path fill="#1C4670" d="M98.7,296.1c1.5,0.1,2.6,1,2.5,2.1l-0.5,10.2c0,1.1-1.3,1.9-2.7,1.8l-8.2-0.4c-1.4-0.1-2.6-1-2.5-2.1
				l0.5-10.2c0-1.1,1.3-1.9,2.7-1.8L98.7,296.1z"/>
			<path fill="#1C4670" d="M178.6,300.2c-1.4-0.1-2.7,0.7-2.7,1.8l-0.5,10.2c-0.1,1.1,1.1,2,2.5,2.1l8.2,0.4
				c1.4,0.1,2.7-0.7,2.7-1.8l0.5-10.2c0.1-1.1-1.1-2-2.5-2.1L178.6,300.2z"/>
			<path fill="#1C4670" d="M99.5,317.1c1.3-0.7,2.7-0.4,3.2,0.5l4.6,9.1c0.5,0.9-0.2,2.3-1.4,2.9l-7.3,3.7c-1.3,0.7-2.7,0.4-3.2-0.5
				l-4.6-9.1c-0.5-0.9,0.2-2.2,1.4-2.9L99.5,317.1z"/>
			<path fill="#1C4670" d="M170.7,280.7c-1.3,0.7-1.9,2-1.4,2.9l4.6,9.1c0.5,0.9,1.9,1.2,3.2,0.5l7.3-3.7c1.3-0.7,1.9-2,1.4-2.9
				l-4.6-9.1c-0.5-0.9-1.9-1.2-3.2-0.5L170.7,280.7z"/>
			<path fill="#1C4670" d="M110.7,334.9c0.8-1.2,2.1-1.7,3-1.1l8.6,5.5c0.9,0.6,1,2,0.2,3.2l-4.5,6.9c-0.8,1.2-2.2,1.7-3,1.1
				l-8.5-5.5c-0.9-0.6-1-2-0.2-3.2L110.7,334.9z"/>
			<path fill="#1C4670" d="M154.1,267.8c-0.8,1.2-0.7,2.7,0.2,3.2l8.6,5.5c0.9,0.6,2.2,0.1,3-1.1l4.5-6.9c0.8-1.2,0.7-2.7-0.2-3.2
				l-8.6-5.5c-0.9-0.6-2.3-0.1-3,1.1L154.1,267.8z"/>
			<path fill="#1C4670" d="M140.5,262.3c-23.7-1.2-43.9,17-45.1,40.7c-1.2,23.7,17,43.9,40.7,45.1c23.7,1.2,43.8-17,45-40.7
				C182.4,283.7,164.1,263.5,140.5,262.3z M136.8,333.4c-15.6-0.8-27.6-14.1-26.8-29.7c0.8-15.6,14.1-27.6,29.7-26.8
				c15.6,0.8,27.6,14.1,26.8,29.7C165.7,322.2,152.5,334.2,136.8,333.4z"/>
		</g>
	</g>
	<g>
		<g>
			<path fill="#1C4670" d="M246.4,383c-1.6-5.1,1.9-3.6,4.2-0.5c2.3,3.1,19,22.9,28.3-2.6c9.7-25.3-15.9-21.4-19.6-20.6
				c-3.8,0.9-7.4-0.3-2.8-3.1c5.7-3.5,17.5-10,32.5-3.1c15.8,7.2,12.1,25.8,9.1,33.9c-3,8.1-12.4,24.5-29.1,19.6
				C253.1,402,248.4,389.4,246.4,383z"/>
			<path fill="#1C4670" d="M435.4,453.6c4.5-2.8,1-4-2.8-3.1c-3.8,0.9-29.4,4.8-19.7-20.6c9.3-25.5,26-5.8,28.3-2.6
				c2.3,3.1,5.8,4.6,4.2-0.5c-2-6.4-6.7-19-22.4-23.7c-16.7-4.9-26.1,11.5-29.1,19.6c-3,8.1-6.7,26.7,9.1,33.9
				C417.8,463.6,429.6,457.1,435.4,453.6z"/>
			<polygon fill="#1C4670" points="400.5,413.4 396.6,423.9 295.1,386 299.1,375.5 			"/>
			
				<rect x="338.3" y="356" transform="matrix(0.3497 -0.9369 0.9369 0.3497 -160.6033 588.9699)" fill="#1C4670" width="11.2" height="108.4"/>
			<path fill="#1C4670" d="M432.6,450.6c3.8-0.9,7.3,0.3,2.8,3.1c-5.7,3.5-17.5,10-32.5,3.1c-15.8-7.3-12.1-25.8-9.1-33.9l19.1,7.1
				C403.2,455.3,428.8,451.4,432.6,450.6z"/>
			<path fill="#1C4670" d="M268.9,406.6c-15.8-4.6-20.4-17.3-22.5-23.7c-1.6-5.1,1.9-3.6,4.2-0.5c2.3,3.1,19,22.9,28.3-2.6l19.1,7.1
				C294.9,395.1,285.5,411.5,268.9,406.6z"/>
		</g>
		<g>
			<g>
				<polygon fill="#FCD751" points="378.4,318.1 370.2,315.1 335.4,408.3 343.5,411.3 				"/>
				
					<rect x="315.2" y="361.9" transform="matrix(0.3504 -0.9366 0.9366 0.3504 -105.8983 579.757)" fill="#FFA229" width="99.5" height="8.6"/>
				<path fill="#FCD751" d="M374.4,328.5c0,0-14.4-8-12.1-14.5c2.3-6.5,18.2-25.5,25.9-22.6L374.4,328.5z"/>
				<path fill="#FFA229" d="M374.4,328.5c0,0,16.1,3.4,18.6-3c2.6-6.5,3-31.2-4.8-34L374.4,328.5z"/>
			</g>
			<g>
				<path fill="#AEBFCE" d="M331.4,489.4c-3.1,8.3-12.3,12.5-20.6,9.4l0,0c-8.3-3.1-12.5-12.3-9.4-20.6l27.8-74.3
					c3.1-8.3,12.3-12.5,20.6-9.4l0,0c8.3,3.1,12.5,12.3,9.4,20.6L331.4,489.4z"/>
				<path fill="#768296" d="M316.1,493.3c-0.7,1.8-2.5,2.8-4,2.2l0,0c-1.6-0.6-2.3-2.5-1.6-4.3l30.9-82.6c0.7-1.8,2.5-2.8,4.1-2.2
					l0,0c1.5,0.6,2.3,2.5,1.6,4.3L316.1,493.3z"/>
				<path fill="#768296" d="M326.4,492.3c-0.7,1.8-2.5,2.8-4,2.2l0,0c-1.6-0.6-2.3-2.5-1.6-4.3l30.9-82.6c0.7-1.8,2.5-2.8,4-2.2l0,0
					c1.6,0.6,2.3,2.5,1.6,4.4L326.4,492.3z"/>
				<path fill="#768296" d="M303.2,483.6c-0.7,1.8,0,3.8,1.6,4.4l0,0c1.6,0.6,3.4-0.4,4-2.2l30.9-82.6c0.7-1.8,0-3.8-1.6-4.3l0,0
					c-1.6-0.6-3.4,0.4-4,2.2L303.2,483.6z"/>
				<path fill="#768296" d="M366.9,409.4c-1.5,4.1-6.1,6.2-10.2,4.6l-25-9.3c-4.1-1.5-6.2-6.1-4.7-10.2l0,0
					c1.5-4.1,6.1-6.2,10.2-4.6l25,9.3C366.4,400.7,368.5,405.3,366.9,409.4L366.9,409.4z"/>
				<path fill="#768296" d="M364.7,406.6c-1.2,3.2-5,4.7-8.5,3.4l-21.3-8c-3.5-1.3-5.4-4.9-4.2-8.1l0,0c1.2-3.2,5-4.7,8.5-3.3
					l21.3,8C364,399.8,365.9,403.4,364.7,406.6L364.7,406.6z"/>
			</g>
		</g>
	</g>
	<g>
		<g>
			<path fill="#1C4670" d="M292.2,223.5l-31.8-55.1c-1.3-2.2-3.9-3.2-6.2-2.6c-2.4-0.6-4.9,0.4-6.2,2.6l-31.8,55.1
				c-1.5,2.7-0.6,6.1,2,7.6c2.7,1.5,6.1,0.6,7.6-2.1l28.4-49.1l28.4,49.1c1.5,2.7,4.9,3.6,7.6,2.1
				C292.8,229.6,293.7,226.2,292.2,223.5z"/>
			<path fill="#1C4670" d="M260.9,229.7c0,3.7-3,6.7-6.7,6.7l0,0c-3.7,0-6.7-3-6.7-6.7V153c0-3.7,3-6.7,6.7-6.7l0,0
				c3.7,0,6.7,3,6.7,6.7V229.7z"/>
		</g>
		<path fill="#AEBFCE" d="M345,146c0,5.2-4.3,9.5-9.6,9.5H172.8c-5.3,0-9.6-4.3-9.6-9.5V37.7c0-5.3,4.3-9.5,9.6-9.5h162.7
			c5.3,0,9.6,4.3,9.6,9.5V146z"/>
		<g>
			<rect x="219" y="91.1" fill="#FCD751" width="12.1" height="43.1"/>
			<rect x="240.1" y="71.5" fill="#FCD751" width="12.1" height="62.8"/>
			<rect x="266.5" y="103.6" fill="#FCD751" width="12.1" height="30.6"/>
			<rect x="290.3" y="91.1" fill="#FCD751" width="12.1" height="43.1"/>
			<polygon fill="#FFFFFF" points="296.3,65 286,71.1 289.9,73.2 272.3,95 246.9,51.2 220.1,86.6 222.8,87.9 246.6,56.6 
				271.8,100.2 292.6,74.7 296.5,76.8 			"/>
			<rect x="204" y="51.2" fill="#FFFFFF" width="3.6" height="92.9"/>
			<rect x="194.9" y="134.2" fill="#FFFFFF" width="118.4" height="3.3"/>
		</g>
		<path fill="#1C4670" d="M351.3,29.6c0,5.3-4.3,9.5-9.6,9.5H166.6c-5.3,0-9.5-4.3-9.5-9.5l0,0c0-5.3,4.3-9.6,9.5-9.6h175.1
			C347,20,351.3,24.3,351.3,29.6L351.3,29.6z"/>
	</g>
	<g>
		<path fill="#768296" d="M389.8,382.6l-3.9-3.7c31.2-33.6,48.4-77.3,48.4-123.1c0-42.9-15.3-84.4-43-117.1l4.1-3.5
			c28.6,33.6,44.3,76.4,44.3,120.6C439.6,303,421.9,348,389.8,382.6z"/>
	</g>
	<g>
		<path fill="#768296" d="M72.6,255.8h-5.4c0-60.1,29.3-116.9,78.4-151.8l3.1,4.4C101,142.3,72.6,197.4,72.6,255.8z"/>
	</g>
	<g>
		<path fill="#768296" d="M253.4,442c-34.6,0-68.3-9.6-97.6-27.6l2.8-4.6c28.4,17.6,61.2,26.8,94.8,26.8c14.1,0,28.2-1.6,41.8-4.8
			l1.2,5.2C282.4,440.4,267.9,442,253.4,442z"/>
	</g>
	<g>
		<g>
			<path fill="#1C4670" d="M324.4,187.9c-14.7,0-28.5-5.7-38.9-16.1c-10.4-10.4-16.1-24.2-16.1-38.9c0-14.7,5.7-28.5,16.1-38.9
				c10.4-10.4,24.2-16.1,38.9-16.1c14.7,0,28.5,5.7,38.9,16.1c21.5,21.5,21.5,56.4,0,77.9C353,182.2,339.2,187.9,324.4,187.9z
				 M324.4,93.9c-10.4,0-20.2,4-27.5,11.4c-7.3,7.3-11.4,17.1-11.4,27.5c0,10.4,4,20.2,11.4,27.5c7.4,7.4,17.1,11.4,27.5,11.4
				c10.4,0,20.2-4,27.5-11.4c15.2-15.2,15.2-39.9,0-55.1C344.6,98,334.9,93.9,324.4,93.9z"/>
		</g>
		<g>
			<polygon fill="#1C4670" points="376.6,196.5 351.4,171.2 362.8,159.8 388,185.1 			"/>
		</g>
		<path fill="#FFA229" d="M455.4,246.4c2.8,2.8,2.8,7.5,0,10.3l-7.1,7.1c-2.8,2.8-7.5,2.8-10.3,0l-67.1-67.1
			c-2.9-2.8-2.9-7.5,0-10.3l7.1-7.1c2.8-2.8,7.5-2.8,10.3,0L455.4,246.4z"/>
		<g>
			<polygon fill="#1C4670" points="379.4,205.3 375.6,201.4 393,184 396.8,187.8 			"/>
		</g>
		<g>
			<polygon fill="#1C4670" points="385.4,211.3 381.6,207.5 399.1,190.1 402.9,193.8 			"/>
		</g>
		<g>
			<polygon fill="#1C4670" points="433.2,259.1 429.4,255.3 446.8,237.8 450.6,241.6 			"/>
		</g>
		<g>
			
				<rect x="421.7" y="239.7" transform="matrix(0.7065 -0.7077 0.7077 0.7065 -44.1728 378.3023)" fill="#1C4670" width="24.6" height="5.4"/>
		</g>
	</g>
</g>
</svg>
