<?xml version="1.0" encoding="utf-8"?>
<!-- Generator: Adobe Illustrator 24.0.2, SVG Export Plug-In . SVG Version: 6.00 Build 0)  -->
<svg version="1.1" xmlns="http://www.w3.org/2000/svg" xmlns:xlink="http://www.w3.org/1999/xlink" x="0px" y="0px"
	 viewBox="0 0 512 512" style="enable-background:new 0 0 512 512;" xml:space="preserve">
<style type="text/css">
	.st0{fill:#C5E9F9;}
	.st1{fill:#5E889E;}
</style>
<g id="Layer_1">
	<circle class="st0" cx="256.3281" cy="255.9678" r="248.873"/>
</g>
<g id="Layer_2">
	<g>
		<path class="st1" d="M283.9085,196.6119c-7.2071,8.1905-12.2874,16.4282-14.9725,24.5461
			c-0.8467,2.5688-1.4404,5.0954-1.7929,7.5698c-3.736-0.9175-7.6254-1.4117-11.6347-1.4117
			c-27.0019,0-48.9741,21.9739-48.9741,48.9741c0,27.0036,21.9706,48.9708,48.9741,48.9708
			c27.0019,0,48.9707-21.9672,48.9707-48.9708c0-4.0058-0.4908-7.9037-1.4084-11.638c10.2786-1.437,21.1728-7.1245,32.1226-16.7537
			c3.1659,8.8837,4.9015,18.437,4.9015,28.3917c0,46.6398-37.9484,84.5899-84.5865,84.5899
			c-46.6432,0-84.5898-37.9501-84.5898-84.5898c0-46.6415,37.9467-84.5865,84.5898-84.5865
			C265.4681,191.702,275.0299,193.4426,283.9085,196.6119z M378.48,188.1397c-6.5814,12.763-13.5035,24.2189-20.6297,34.1298
			c8.5531,16.1364,13.4023,34.5194,13.4023,54.0206c0,63.8286-51.914,115.7494-115.7443,115.7494
			c-63.8236,0-115.7494-51.9207-115.7494-115.7494c0-63.8253,51.9258-115.7511,115.7494-115.7511
			c19.503,0,37.891,4.8559,54.0325,13.4107c9.8771-7.1127,21.306-14.0314,34.1112-20.6347
			c-24.8412-17.8584-55.2806-28.3917-88.1436-28.3917c-83.4648,0-151.3684,67.907-151.3684,151.3668
			c0,83.4648,67.9036,151.3684,151.3685,151.3684c83.4581,0,151.3668-67.9036,151.3668-151.3685
			C406.8751,243.4271,396.3402,212.9844,378.48,188.1397z M259.8212,254.4596c-1.3949-0.2817-2.837-0.4284-4.3128-0.4284
			c-12.279,0-22.259,9.9851-22.259,22.2607s9.98,22.259,22.259,22.259c12.2756,0,22.2607-9.9834,22.2607-22.259
			c0-1.4758-0.1518-2.9163-0.4217-4.3111l-15.1159,11.778c-1.7609,1.3763-3.9704,2.1404-6.2204,2.1404
			c-2.6953,0-5.2388-1.0542-7.1481-2.9618c-3.601-3.6061-3.9536-9.3593-0.818-13.3719L259.8212,254.4596z"/>
		<path class="st1" d="M388.4904,151.0583c11.5149,2.3023,35.8029,5.4614,47.0716-5.8089
			c16.9831-16.9848-6.4144-42.5918-22.576-26.4369c16.1617-16.1549-9.4504-39.5591-26.4402-22.5744
			c-11.2635,11.267-8.1044,35.5533-5.8055,47.0682l-5.8004,5.8021c-81.5842,34.2377-108.3719,74.7009-95.8298,95.8804
			l-23.6589,30.3567c-0.2176,0.2817-0.1973,0.6848,0.0591,0.9462c0.2564,0.2597,0.6645,0.2783,0.9513,0.0557l30.3533-23.6505
			c21.1694,12.537,61.636-14.2456,95.877-95.8349L388.4904,151.0583z"/>
	</g>
</g>
</svg>
