<?xml version="1.0" encoding="utf-8"?>
<!-- Generator: Adobe Illustrator 24.0.2, SVG Export Plug-In . SVG Version: 6.00 Build 0)  -->
<svg version="1.1" id="Layer_1" xmlns="http://www.w3.org/2000/svg" xmlns:xlink="http://www.w3.org/1999/xlink" width="150px" height="150px"
	 viewBox="0 0 512 512" enable-background="new 0 0 512 512" xml:space="preserve">
<g>
	<g>
		<path fill="#AEBFCE" d="M127.1,192.3c-0.1,2.9-2,5.1-4.1,5l-20.4-1c-2.1-0.1-3.7-2.5-3.6-5.4l0.8-16.5c0.2-2.9,2-5.2,4.2-5l20.4,1
			c2.1,0.1,3.7,2.5,3.6,5.4L127.1,192.3z"/>
		<path fill="#AEBFCE" d="M118.9,352.6c0.1-2.9-1.5-5.3-3.6-5.4l-20.4-1c-2.1-0.1-4,2.1-4.1,5l-0.8,16.5c-0.1,2.9,1.4,5.3,3.6,5.4
			l20.5,1c2.1,0.1,4-2.1,4.1-5L118.9,352.6z"/>
		<path fill="#AEBFCE" d="M84.9,193.8c1.3,2.6,0.8,5.4-1.1,6.4l-18.2,9.3c-1.9,1-4.5-0.3-5.8-2.9L52.3,192c-1.3-2.6-0.8-5.5,1-6.4
			l18.2-9.3c1.9-1,4.5,0.3,5.8,2.9L84.9,193.8z"/>
		<path fill="#AEBFCE" d="M158,336.8c-1.3-2.6-3.9-3.9-5.8-2.9l-18.2,9.3c-1.9,1-2.4,3.9-1.1,6.4l7.5,14.7c1.3,2.6,3.9,3.9,5.8,2.9
			l18.2-9.3c1.9-1,2.4-3.9,1.1-6.5L158,336.8z"/>
		<path fill="#AEBFCE" d="M49.2,216.3c2.4,1.6,3.5,4.3,2.3,6.1l-11.1,17.2c-1.2,1.8-4.1,2-6.5,0.4L20,231c-2.4-1.6-3.5-4.3-2.3-6.1
			l11.1-17.2c1.1-1.8,4.1-2,6.5-0.4L49.2,216.3z"/>
		<path fill="#AEBFCE" d="M184,303.5c-2.4-1.6-5.3-1.4-6.5,0.4l-11.1,17.2c-1.2,1.8-0.2,4.5,2.3,6.1l13.8,8.9
			c2.4,1.6,5.4,1.4,6.5-0.4l11.1-17.2c1.2-1.8,0.2-4.5-2.3-6.1L184,303.5z"/>
		<path fill="#AEBFCE" d="M29.4,253.6c2.9,0.2,5.2,2,5.1,4.1l-1.1,20.4c-0.1,2.1-2.5,3.7-5.4,3.6l-16.5-0.8c-2.9-0.2-5.2-2-5-4.2
			l1-20.4c0.1-2.2,2.5-3.8,5.4-3.6L29.4,253.6z"/>
		<path fill="#AEBFCE" d="M189.8,261.7c-2.9-0.1-5.3,1.5-5.4,3.6l-1,20.4c-0.1,2.1,2.1,4,5.1,4.1l16.5,0.8c2.9,0.1,5.3-1.5,5.4-3.6
			l1-20.4c0.1-2.1-2.2-4-5-4.1L189.8,261.7z"/>
		<path fill="#AEBFCE" d="M31,295.7c2.6-1.3,5.4-0.9,6.4,1l9.3,18.2c1,1.9-0.3,4.5-2.9,5.8l-14.7,7.5c-2.6,1.3-5.4,0.8-6.4-1.1
			l-9.3-18.2c-1-1.9,0.3-4.5,2.9-5.8L31,295.7z"/>
		<path fill="#AEBFCE" d="M174,222.6c-2.6,1.3-3.9,3.9-2.9,5.8l9.3,18.2c1,1.9,3.8,2.4,6.4,1.1l14.7-7.5c2.6-1.3,3.9-3.9,2.9-5.8
			l-9.3-18.2c-1-1.9-3.8-2.4-6.4-1.1L174,222.6z"/>
		<path fill="#AEBFCE" d="M53.5,331.5c1.6-2.4,4.3-3.5,6.1-2.3l17.2,11.1c1.8,1.2,2,4.1,0.4,6.5l-9,13.9c-1.6,2.4-4.3,3.5-6.1,2.3
			l-17.2-11.1c-1.8-1.2-2-4.1-0.4-6.5L53.5,331.5z"/>
		<path fill="#AEBFCE" d="M140.7,196.7c-1.6,2.4-1.4,5.3,0.4,6.5l17.2,11.1c1.8,1.2,4.5,0.1,6.1-2.3l9-13.8c1.6-2.4,1.4-5.3-0.4-6.5
			l-17.2-11.1c-1.8-1.1-4.5-0.1-6.1,2.3L140.7,196.7z"/>
		<path fill="#768296" d="M113.3,185.6c-47.6-2.4-88.1,34.2-90.5,81.8c-2.4,47.6,34.2,88.1,81.8,90.5c47.6,2.4,88.1-34.2,90.5-81.8
			C197.5,228.5,160.9,188,113.3,185.6z M106.1,328.4c-31.3-1.6-55.4-28.3-53.8-59.6c1.6-31.3,28.3-55.4,59.6-53.8
			c31.3,1.6,55.5,28.2,53.8,59.6C164,305.9,137.4,330,106.1,328.4z"/>
	</g>
	<g>
		<path fill="#AEBFCE" d="M145.4,30.6c-0.1,1.9-1.3,3.4-2.7,3.3l-13.3-0.7c-1.4-0.1-2.4-1.7-2.4-3.5l0.5-10.7
			c0.1-1.9,1.3-3.4,2.7-3.3l13.3,0.7c1.4,0.1,2.4,1.6,2.3,3.5L145.4,30.6z"/>
		<path fill="#AEBFCE" d="M140.1,135.1c0.1-1.9-1-3.5-2.4-3.5l-13.3-0.7c-1.4-0.1-2.6,1.4-2.7,3.3l-0.5,10.7
			c-0.1,1.9,0.9,3.5,2.3,3.5l13.3,0.7c1.4,0.1,2.6-1.4,2.7-3.3L140.1,135.1z"/>
		<path fill="#AEBFCE" d="M117.9,31.6c0.9,1.7,0.6,3.5-0.7,4.2l-11.9,6.1c-1.2,0.6-2.9-0.2-3.8-1.9l-4.9-9.6
			c-0.9-1.7-0.5-3.5,0.7-4.2l11.9-6.1c1.2-0.6,3,0.2,3.8,1.9L117.9,31.6z"/>
		<path fill="#AEBFCE" d="M165.6,124.8c-0.9-1.7-2.6-2.5-3.8-1.9l-11.9,6.1c-1.3,0.6-1.5,2.5-0.7,4.2l4.9,9.6
			c0.9,1.7,2.6,2.5,3.8,1.9l11.9-6.1c1.2-0.6,1.6-2.5,0.7-4.2L165.6,124.8z"/>
		<path fill="#AEBFCE" d="M94.7,46.2c1.6,1,2.2,2.8,1.5,4l-7.2,11.2c-0.8,1.2-2.7,1.3-4.2,0.3l-9-5.8c-1.6-1-2.3-2.8-1.5-4l7.2-11.2
			c0.7-1.2,2.7-1.3,4.2-0.3L94.7,46.2z"/>
		<path fill="#AEBFCE" d="M182.5,103.1c-1.6-1-3.5-0.9-4.2,0.3l-7.2,11.2c-0.8,1.2-0.1,2.9,1.5,4l9,5.8c1.6,1,3.5,0.9,4.3-0.3
			l7.2-11.2c0.8-1.2,0.1-2.9-1.5-4L182.5,103.1z"/>
		<path fill="#AEBFCE" d="M81.8,70.5c1.9,0.1,3.4,1.3,3.3,2.7l-0.7,13.3c-0.1,1.4-1.7,2.4-3.5,2.4l-10.7-0.5
			c-1.9-0.1-3.4-1.3-3.3-2.7l0.7-13.3c0.1-1.4,1.7-2.4,3.5-2.3L81.8,70.5z"/>
		<path fill="#AEBFCE" d="M186.3,75.9c-1.9-0.1-3.5,0.9-3.5,2.3l-0.7,13.3c-0.1,1.4,1.4,2.6,3.3,2.7l10.7,0.6c1.9,0.1,3.5-1,3.5-2.4
			l0.7-13.3c0.1-1.4-1.4-2.6-3.3-2.7L186.3,75.9z"/>
		<path fill="#AEBFCE" d="M82.8,98c1.7-0.9,3.5-0.6,4.2,0.7l6.1,11.9c0.6,1.2-0.2,2.9-1.9,3.8l-9.6,4.9c-1.7,0.9-3.5,0.5-4.2-0.7
			l-6.1-11.9c-0.6-1.2,0.2-2.9,1.9-3.8L82.8,98z"/>
		<path fill="#AEBFCE" d="M176,50.4c-1.7,0.9-2.5,2.6-1.9,3.8l6.1,11.9c0.6,1.2,2.5,1.6,4.2,0.7l9.6-4.9c1.7-0.9,2.5-2.6,1.9-3.8
			l-6.1-11.9c-0.6-1.2-2.5-1.6-4.2-0.7L176,50.4z"/>
		<path fill="#AEBFCE" d="M97.4,121.3c1-1.6,2.8-2.3,4-1.5l11.2,7.2c1.2,0.8,1.3,2.7,0.3,4.2l-5.8,9c-1,1.6-2.8,2.2-4,1.5l-11.2-7.2
			c-1.2-0.8-1.3-2.7-0.3-4.2L97.4,121.3z"/>
		<path fill="#AEBFCE" d="M154.3,33.4c-1,1.6-0.9,3.5,0.3,4.2l11.2,7.2c1.2,0.8,2.9,0.1,4-1.5l5.8-9c1-1.6,0.9-3.5-0.3-4.2
			l-11.2-7.3c-1.2-0.7-3-0.1-4,1.5L154.3,33.4z"/>
		<path fill="#768296" d="M136.4,26.2c-31-1.6-57.4,22.3-59,53.3c-1.6,31,22.3,57.4,53.3,59c31,1.6,57.4-22.3,59-53.3
			C191.3,54.2,167.4,27.8,136.4,26.2z M131.7,119.3c-20.4-1-36.1-18.4-35.1-38.8c1-20.4,18.4-36.1,38.8-35.1
			c20.4,1,36.1,18.4,35.1,38.8C169.5,104.7,152.1,120.4,131.7,119.3z"/>
	</g>
	<g>
		<path fill="#AEBFCE" d="M419.1,175.8c-0.1,1.6-1.1,2.8-2.2,2.7l-11-0.6c-1.2-0.1-2-1.4-1.9-2.9l0.5-8.8c0.1-1.6,1.1-2.8,2.2-2.7
			l11,0.5c1.1,0.1,2,1.4,1.9,2.9L419.1,175.8z"/>
		<path fill="#AEBFCE" d="M414.7,262.1c0.1-1.6-0.8-2.9-1.9-2.9l-11-0.6c-1.2-0.1-2.1,1.2-2.2,2.7l-0.4,8.9
			c-0.1,1.5,0.8,2.9,1.9,2.9l11,0.5c1.1,0.1,2.1-1.1,2.2-2.7L414.7,262.1z"/>
		<path fill="#AEBFCE" d="M396.4,176.7c0.7,1.4,0.5,2.9-0.6,3.5l-9.8,5c-1,0.5-2.4-0.2-3.1-1.5l-4-7.9c-0.7-1.4-0.4-2.9,0.6-3.5
			l9.8-5c1-0.5,2.4,0.2,3.1,1.5L396.4,176.7z"/>
		<path fill="#AEBFCE" d="M435.7,253.5c-0.7-1.4-2.1-2.1-3.1-1.6l-9.8,5c-1,0.5-1.3,2.1-0.6,3.5l4,7.9c0.7,1.4,2.1,2.1,3.2,1.6
			l9.8-5c1-0.5,1.3-2.1,0.6-3.5L435.7,253.5z"/>
		<path fill="#AEBFCE" d="M377.2,188.7c1.3,0.8,1.9,2.3,1.2,3.3l-6,9.3c-0.6,1-2.2,1.1-3.5,0.2l-7.4-4.8c-1.3-0.8-1.9-2.3-1.2-3.3
			l6-9.2c0.6-1,2.2-1.1,3.5-0.2L377.2,188.7z"/>
		<path fill="#AEBFCE" d="M449.7,235.6c-1.3-0.8-2.9-0.7-3.5,0.2l-6,9.2c-0.6,1-0.1,2.4,1.2,3.3l7.4,4.8c1.3,0.8,2.9,0.8,3.5-0.2
			l6-9.2c0.6-0.9,0.1-2.4-1.2-3.3L449.7,235.6z"/>
		<path fill="#AEBFCE" d="M366.6,208.8c1.6,0.1,2.8,1.1,2.7,2.2l-0.6,11c-0.1,1.2-1.4,2-2.9,1.9l-8.9-0.5c-1.6-0.1-2.8-1.1-2.7-2.2
			l0.6-11c0-1.2,1.4-2,2.9-1.9L366.6,208.8z"/>
		<path fill="#AEBFCE" d="M452.8,213.2c-1.6-0.1-2.9,0.8-2.9,1.9l-0.6,11c-0.1,1.2,1.2,2.2,2.7,2.2l8.8,0.5c1.6,0.1,2.9-0.8,2.9-1.9
			l0.6-11c0.1-1.2-1.2-2.1-2.7-2.2L452.8,213.2z"/>
		<path fill="#AEBFCE" d="M367.4,231.5c1.4-0.7,2.9-0.5,3.5,0.6l5,9.8c0.5,1-0.2,2.4-1.6,3.1l-7.9,4c-1.4,0.7-2.9,0.5-3.5-0.6
			l-5-9.8c-0.5-1,0.2-2.4,1.6-3.1L367.4,231.5z"/>
		<path fill="#AEBFCE" d="M444.3,192.1c-1.4,0.7-2.1,2.1-1.6,3.1l5,9.8c0.5,1,2.1,1.3,3.5,0.6l7.9-4c1.4-0.7,2.1-2.1,1.5-3.1l-5-9.8
			c-0.5-1-2.1-1.3-3.5-0.6L444.3,192.1z"/>
		<path fill="#AEBFCE" d="M379.5,250.7c0.9-1.3,2.3-1.9,3.3-1.2l9.2,6c1,0.6,1.1,2.2,0.2,3.5l-4.8,7.5c-0.8,1.3-2.3,1.9-3.3,1.2
			l-9.2-6c-1-0.6-1.1-2.2-0.2-3.5L379.5,250.7z"/>
		<path fill="#AEBFCE" d="M426.4,178.2c-0.8,1.3-0.7,2.9,0.2,3.5l9.2,6c1,0.6,2.4,0.1,3.3-1.2l4.8-7.4c0.8-1.3,0.8-2.9-0.2-3.5
			l-9.2-6c-1-0.6-2.4-0.1-3.3,1.2L426.4,178.2z"/>
		<path fill="#768296" d="M411.7,172.2c-25.6-1.3-47.4,18.4-48.7,44c-1.3,25.6,18.4,47.4,44,48.7c25.6,1.3,47.4-18.4,48.7-44
			C456.9,195.3,437.3,173.5,411.7,172.2z M407.8,249c-16.8-0.8-29.8-15.2-28.9-32c0.9-16.8,15.2-29.8,32.1-29
			c16.8,0.9,29.8,15.2,28.9,32C439,236.9,424.6,249.9,407.8,249z"/>
	</g>
	<g>
		<path fill="#FCD751" d="M142.7,234.1l90.7-56.8L149.3,111C120.5,147.5,119.4,196.8,142.7,234.1z"/>
		<path fill="#1C4670" d="M200.2,45.1l40,99.3L318,70.9c-3.5-3.7-7.3-7.3-11.4-10.6C275.3,35.6,234.7,31.2,200.2,45.1z"/>
		<path fill="#1C4670" d="M167,261.4c22.1,17.5,49,24.8,75,22.6l-8.7-106.7l-90.7,56.8C149,244.2,157.1,253.6,167,261.4z"/>
		<path fill="#AEBFCE" d="M149.3,111l84.1,66.3l-40-99.3C176.6,84.8,161.3,95.8,149.3,111z"/>
		<path fill="#AEBFCE" d="M233.4,177.3l102.9,29.3c10.1-35.6,1.1-74.9-25.2-102.7L233.4,177.3z"/>
		<path fill="#FFA229" d="M233.4,177.3l8.7,106.7c12.2-1,24.2-4.1,35.4-9.1c15.2-6.8,29-17.2,40-31.2c9-11.3,15.2-24,18.9-37
			L233.4,177.3z"/>
	</g>
	<g>
		<g>
			<path fill="#1C4670" d="M409.3,311.7c-24.7,0-47.9-9.6-65.4-27.1c-17.5-17.5-27.1-40.7-27.1-65.4c0-24.7,9.6-47.9,27.1-65.4
				c17.5-17.5,40.7-27.1,65.4-27.1c24.7,0,47.9,9.6,65.4,27.1c17.5,17.5,27.1,40.7,27.1,65.4c0,24.7-9.6,47.9-27.1,65.4
				C457.2,302.1,434,311.7,409.3,311.7z M409.3,146.1c-19.5,0-37.9,7.6-51.7,21.4c-13.8,13.8-21.4,32.2-21.4,51.7
				c0,19.5,7.6,37.9,21.4,51.7c13.8,13.8,32.2,21.4,51.7,21.4c19.5,0,37.9-7.6,51.7-21.4c13.8-13.8,21.4-32.2,21.4-51.7
				s-7.6-37.9-21.4-51.7C447.2,153.7,428.9,146.1,409.3,146.1z"/>
		</g>
		<g>
			<polygon fill="#1C4670" points="314.2,328 300.5,314.4 345.1,269.8 358.7,283.5 			"/>
		</g>
		<path fill="#AEBFCE" d="M178.6,419.2c-5,5-5,13.2,0,18.2l12.5,12.5c5,5,13.2,5,18.2,0l118.3-118.3c5-5,5-13.2,0-18.2l-12.5-12.5
			c-5-5-13.2-5-18.2,0L178.6,419.2z"/>
		<g>
			
				<rect x="297.3" y="306.3" transform="matrix(0.7071 -0.7071 0.7071 0.7071 -143.9355 308.5469)" fill="#FCD751" width="6.4" height="43.4"/>
		</g>
		<g>
			<polygon fill="#FCD751" points="303,356.3 272.3,325.6 276.8,321 307.5,351.7 			"/>
		</g>
		<g>
			
				<rect x="202.5" y="401.1" transform="matrix(0.7069 -0.7073 0.7073 0.7069 -238.7482 269.45)" fill="#FCD751" width="6.4" height="43.4"/>
		</g>
		<g>
			
				<rect x="213.1" y="390.5" transform="matrix(0.707 -0.7072 0.7072 0.707 -228.1029 273.7701)" fill="#FCD751" width="6.4" height="43.4"/>
		</g>
	</g>
</g>
</svg>
