<?xml version="1.0" encoding="utf-8"?>
<!-- Generator: Adobe Illustrator 23.0.3, SVG Export Plug-In . SVG Version: 6.00 Build 0)  -->
<svg version="1.1" id="Capa_1" xmlns="http://www.w3.org/2000/svg" xmlns:xlink="http://www.w3.org/1999/xlink" x="0px" y="0px"
	 viewBox="0 0 480 480" style="enable-background:new 0 0 480 480;" xml:space="preserve">
<style type="text/css">
	.st0{fill:#299EE3;}
</style>
<path class="st0" d="M464,48H288v136c0,17.7-14.3,32-32,32h-16v16h8c20.4,0,39.8,8.8,53.4,24h64.9c25.1-0.3,46.4,18.4,49.5,43.3
	c1.1,11.9-2.2,23.8-9.3,33.4C446,324.9,480,302.9,480,264V64C480,55.2,472.8,48,464,48z M328,224h-32v-16h32V224z M448,176
	c0,4.4-3.6,8-8,8h-32c-4.4,0-8-3.6-8-8c-4.4,0-8,3.6-8,8v24c0,13.3-10.7,24-24,24s-24-10.7-24-24v-24c0-4.4-3.6-8-8-8h-8
	c-13.3,0-24-10.7-24-24v-40c0-13.3,10.7-24,24-24h72c0-4.4,3.6-8,8-8h32c4.4,0,8,3.6,8,8V176z M184,104h-8c-13.3,0-24-10.7-24-24V56
	c0-4.4-3.6-8-8-8s-8,3.6-8,8v24c0,13.3-10.7,24-24,24v56h72c4.4,0,8-3.6,8-8v-40C192,107.6,188.4,104,184,104z M416,96h16v72h-16V96
	z M248,248h-87.4c4,27.5,27.6,48,55.4,48h87.3C299.3,268.5,275.8,248.1,248,248z M328,104c-4.4,0-8,3.6-8,8v40c0,4.4,3.6,8,8,8h8
	c13.3,0,24,10.7,24,24v24c0,4.4,3.6,8,8,8s8-3.6,8-8v-24c0-13.3,10.7-24,24-24v-56H328z M256,0H16C7.2,0,0,7.2,0,16v192
	c0,38.9,34,60.9,73.6,68.7c-7.1-9.6-10.5-21.5-9.3-33.4c3.1-24.9,24.3-43.6,49.5-43.3H256c8.8,0,16-7.2,16-16V16
	C272,7.2,264.8,0,256,0z M208,152c0,13.3-10.7,24-24,24h-72c0,4.4-3.6,8-8,8H72c-4.4,0-8-3.6-8-8V88c0-4.4,3.6-8,8-8h32
	c4.4,0,8,3.6,8,8c4.4,0,8-3.6,8-8V56c0-13.3,10.7-24,24-24s24,10.7,24,24v24c0,4.4,3.6,8,8,8h8c13.3,0,24,10.7,24,24V152z M224,56
	h-8v8h-16v-8h-8V40h8v-8h16v8h8V56z M296,408c-1.3,0-2.7,0.1-4,0.3c-13.1,2.2-25.5-6.6-27.7-19.7c-0.3-1.5-0.4-3.1-0.3-4.6v-4.2
	c19.5-6.9,35.1-21.9,42.8-41c1.5-4.1-0.5-8.7-4.6-10.2c-0.2-0.1-0.4-0.1-0.6-0.2c1.5-5.3,2.2-10.8,2.3-16.3H216
	c-13.8,0-27.3-4-38.9-11.5c-0.7,3.8-1.1,7.6-1.1,11.5c0.1,5.5,0.8,11,2.3,16.4c-4.2,1.3-6.6,5.7-5.3,9.9c0.1,0.2,0.1,0.4,0.2,0.5
	c7.7,19.2,23.3,34.1,42.8,41v4.2c0.3,13.3-10.2,24.3-23.4,24.6c-1.5,0-3.1-0.1-4.6-0.3c-17.5-2.2-33.5,10.2-35.7,27.7
	c-0.2,1.3-0.3,2.7-0.3,4v40h176v-40C328,422.3,313.7,408,296,408z M80,96h16v72H80V96z"/>
</svg>
